<svg xmlns="http://www.w3.org/2000/svg" viewBox="0 0 24 24" width="24" height="24" color="currentColor" fill="none">
    <path fill-rule="evenodd" clip-rule="evenodd" d="M14.76 11C15.35 11.25 15.99 11.25 17.25 11.25C18.51 11.25 19.14 11.25 19.74 11C20.53 10.67 21.17 10.03 21.5 9.23999C21.75 8.64999 21.75 8.01 21.75 6.75C21.75 5.49 21.75 4.86001 21.5 4.26001C21.17 3.47001 20.53 2.83 19.74 2.5C19.15 2.25 18.51 2.25 17.25 2.25C15.99 2.25 15.36 2.25 14.76 2.5C13.97 2.83 13.33 3.47001 13 4.26001C12.75 4.85001 12.75 5.49 12.75 6.75C12.75 8.01 12.75 8.63999 13 9.23999C13.33 10.03 13.97 10.67 14.76 11ZM15.33 9.62C14.9 9.44 14.56 9.10001 14.38 8.67001C14.25 8.35001 14.25 7.78 14.25 6.75C14.25 5.72 14.25 5.14999 14.38 4.82999C14.56 4.39999 14.91 4.06 15.33 3.88C15.65 3.75 16.22 3.75 17.25 3.75C18.28 3.75 18.85 3.75 19.17 3.88C19.6 4.06 19.94 4.40999 20.12 4.82999C20.25 5.14999 20.25 5.72 20.25 6.75C20.25 7.78 20.25 8.35001 20.12 8.67001C19.94 9.10001 19.59 9.44 19.17 9.62C18.85 9.75 18.28 9.75 17.25 9.75C16.22 9.75 15.65 9.75 15.33 9.62ZM14.76 21.5C15.35 21.75 15.99 21.75 17.25 21.75C18.51 21.75 19.14 21.75 19.74 21.5C20.53 21.17 21.17 20.53 21.5 19.74C21.75 19.15 21.75 18.51 21.75 17.25C21.75 15.99 21.75 15.36 21.5 14.76C21.17 13.97 20.53 13.33 19.74 13C19.15 12.75 18.51 12.75 17.25 12.75C15.99 12.75 15.36 12.75 14.76 13C13.97 13.33 13.33 13.97 13 14.76C12.75 15.35 12.75 15.99 12.75 17.25C12.75 18.51 12.75 19.14 13 19.74C13.33 20.53 13.97 21.17 14.76 21.5ZM15.33 20.12C14.9 19.94 14.56 19.6 14.38 19.17C14.25 18.85 14.25 18.28 14.25 17.25C14.25 16.22 14.25 15.65 14.38 15.33C14.56 14.9 14.91 14.56 15.33 14.38C15.65 14.25 16.22 14.25 17.25 14.25C18.28 14.25 18.85 14.25 19.17 14.38C19.6 14.56 19.94 14.91 20.12 15.33C20.25 15.65 20.25 16.22 20.25 17.25C20.25 18.28 20.25 18.85 20.12 19.17C19.94 19.6 19.59 19.94 19.17 20.12C18.85 20.25 18.28 20.25 17.25 20.25C16.22 20.25 15.65 20.25 15.33 20.12ZM6.75 21.75C5.49 21.75 4.85001 21.75 4.26001 21.5C3.47001 21.17 2.83 20.53 2.5 19.74C2.25 19.14 2.25 18.51 2.25 17.25C2.25 15.99 2.25 15.35 2.5 14.76C2.83 13.97 3.47001 13.33 4.26001 13C4.86001 12.75 5.49 12.75 6.75 12.75C8.01 12.75 8.64999 12.75 9.23999 13C10.03 13.33 10.67 13.97 11 14.76C11.25 15.36 11.25 15.99 11.25 17.25C11.25 18.51 11.25 19.15 11 19.74C10.67 20.53 10.03 21.17 9.23999 21.5C8.63999 21.75 8.01 21.75 6.75 21.75ZM3.88 19.17C4.06 19.6 4.40002 19.94 4.83002 20.12C5.15002 20.25 5.72 20.25 6.75 20.25C7.78 20.25 8.34998 20.25 8.66998 20.12C9.08998 19.94 9.44 19.6 9.62 19.17C9.75 18.85 9.75 18.28 9.75 17.25C9.75 16.22 9.75 15.65 9.62 15.33C9.44 14.91 9.09998 14.56 8.66998 14.38C8.34998 14.25 7.78 14.25 6.75 14.25C5.72 14.25 5.15002 14.25 4.83002 14.38C4.41002 14.56 4.06 14.9 3.88 15.33C3.75 15.65 3.75 16.22 3.75 17.25C3.75 18.28 3.75 18.85 3.88 19.17ZM4.26001 11C4.85001 11.25 5.49 11.25 6.75 11.25C8.01 11.25 8.63999 11.25 9.23999 11C10.03 10.67 10.67 10.03 11 9.23999C11.25 8.64999 11.25 8.01 11.25 6.75C11.25 5.49 11.25 4.86001 11 4.26001C10.67 3.47001 10.03 2.83 9.23999 2.5C8.64999 2.25 8.01 2.25 6.75 2.25C5.49 2.25 4.86001 2.25 4.26001 2.5C3.47001 2.83 2.83 3.47001 2.5 4.26001C2.25 4.85001 2.25 5.49 2.25 6.75C2.25 8.01 2.25 8.63999 2.5 9.23999C2.83 10.03 3.47001 10.67 4.26001 11ZM4.83002 9.62C4.40002 9.44 4.06 9.10001 3.88 8.67001C3.75 8.35001 3.75 7.78 3.75 6.75C3.75 5.72 3.75 5.14999 3.88 4.82999C4.06 4.39999 4.41002 4.06 4.83002 3.88C5.15002 3.75 5.72 3.75 6.75 3.75C7.78 3.75 8.34998 3.75 8.66998 3.88C9.09998 4.06 9.44 4.40999 9.62 4.82999C9.75 5.14999 9.75 5.72 9.75 6.75C9.75 7.78 9.75 8.35001 9.62 8.67001C9.44 9.10001 9.08998 9.44 8.66998 9.62C8.34998 9.75 7.78 9.75 6.75 9.75C5.72 9.75 5.15002 9.75 4.83002 9.62Z" fill="currentColor" />
</svg>